<svg width="36" height="36" viewBox="0 0 36 36" fill="none" xmlns="http://www.w3.org/2000/svg">
<g clip-path="url(#clip0_27_105)">
<path d="M36 18C36 27.941 27.941 36 18 36C8.06 36 0 27.941 0 18C0 8.06 8.06 0 18 0C27.941 0 36 8.06 36 18Z" fill="#FFCC4D"/>
<path d="M20.871 28C22.206 27.588 23.5 26.844 23.5 25.5C23.5 22.881 18.588 22.532 18.028 22.501C17.9625 22.4964 17.8968 22.5049 17.8346 22.5261C17.7725 22.5472 17.7152 22.5806 17.6661 22.6242C17.617 22.6678 17.5771 22.7207 17.5488 22.7799C17.5204 22.8391 17.5042 22.9034 17.501 22.969C17.4928 23.1007 17.5369 23.2303 17.6238 23.3296C17.7108 23.4289 17.8334 23.4898 17.965 23.499C18 23.501 21.5 23.798 21.5 25.5C21.5 27.202 18 27.499 17.965 27.501C17.952 27.502 17.942 27.509 17.929 27.511C17.8774 27.5159 17.8269 27.5298 17.78 27.552L17.765 27.561C17.7173 27.5869 17.6743 27.6207 17.638 27.661C17.624 27.676 17.615 27.692 17.603 27.708C17.579 27.7398 17.5588 27.7744 17.543 27.811C17.531 27.84 17.525 27.872 17.519 27.903C17.515 27.926 17.503 27.947 17.501 27.97C17.501 27.981 17.505 27.991 17.505 28.001C17.505 28.011 17.5 28.022 17.501 28.032C17.502 28.056 17.514 28.077 17.519 28.1C17.525 28.131 17.53 28.161 17.542 28.19C17.555 28.22 17.573 28.247 17.591 28.274C17.608 28.298 17.623 28.324 17.643 28.345C17.666 28.368 17.693 28.386 17.721 28.406C17.745 28.423 17.767 28.44 17.795 28.453C17.8273 28.4665 17.8613 28.4756 17.896 28.48C17.92 28.486 17.94 28.498 17.965 28.5C18 28.501 21.5 28.798 21.5 30.5C21.5 32.202 18 32.499 17.965 32.501C17.8388 32.5142 17.7223 32.5748 17.639 32.6705C17.5558 32.7662 17.5119 32.89 17.5164 33.0168C17.5208 33.1436 17.5732 33.264 17.663 33.3537C17.7528 33.4434 17.8732 33.4957 18 33.5L18.028 33.499C18.588 33.468 23.5 33.119 23.5 30.5C23.5 29.156 22.206 28.412 20.871 28ZM16 19C15.581 19 15.191 18.735 15.051 18.316C14.848 17.717 14.034 16 13 16C11.938 16 11.112 17.827 10.949 18.316C10.8651 18.5676 10.6846 18.7755 10.4474 18.894C10.2102 19.0125 9.93558 19.0319 9.68402 18.948C9.43247 18.8641 9.22456 18.6836 9.10603 18.4464C8.98751 18.2092 8.96808 17.9346 9.05202 17.683C9.17702 17.307 10.356 14 13 14C15.644 14 16.823 17.307 16.949 17.684C16.9991 17.8343 17.0127 17.9944 16.9888 18.151C16.9649 18.3077 16.904 18.4564 16.8114 18.5849C16.7187 18.7134 16.5968 18.8181 16.4557 18.8903C16.3147 18.9624 16.1585 19 16 19ZM26 19C25.7902 19 25.5857 18.9339 25.4155 18.8111C25.2454 18.6884 25.1182 18.5151 25.052 18.316C24.849 17.717 24.033 16 23 16C21.938 16 21.111 17.827 20.948 18.316C20.9078 18.4422 20.8429 18.5591 20.7571 18.66C20.6712 18.7609 20.5663 18.8437 20.4482 18.9037C20.3301 18.9636 20.2013 18.9996 20.0692 19.0093C19.9371 19.0191 19.8044 19.0026 19.6788 18.9606C19.5532 18.9187 19.4371 18.8523 19.3374 18.7651C19.2377 18.678 19.1562 18.5719 19.0978 18.4531C19.0394 18.3342 19.0052 18.2049 18.9972 18.0727C18.9891 17.9405 19.0074 17.8081 19.051 17.683C19.177 17.307 20.355 14 23 14C25.645 14 26.823 17.307 26.948 17.684C26.9981 17.8343 27.0117 17.9942 26.9878 18.1508C26.9639 18.3074 26.9032 18.456 26.8107 18.5845C26.7181 18.713 26.5963 18.8177 26.4554 18.8899C26.3145 18.9621 26.1584 18.9999 26 19Z" fill="#664500"/>
</g>
<defs>
<clipPath id="clip0_27_105">
<rect width="36" height="36" fill="white"/>
</clipPath>
</defs>
</svg>
