<svg width="36" height="36" viewBox="0 0 36 36" fill="none" xmlns="http://www.w3.org/2000/svg">
<g clip-path="url(#clip0_27_110)">
<path d="M36 18C36 27.941 27.941 36 18 36C8.06 36 0 27.941 0 18C0 8.06 8.06 0 18 0C27.941 0 36 8.06 36 18Z" fill="#FFCC4D"/>
<path d="M28.457 17.797C28.397 17.662 26.958 14.5 24 14.5C21.043 14.5 19.603 17.662 19.543 17.797C19.5006 17.8978 19.4922 18.0097 19.5192 18.1157C19.5461 18.2217 19.6068 18.3161 19.6921 18.3845C19.7775 18.4529 19.8828 18.4916 19.9921 18.4947C20.1015 18.4979 20.2088 18.4653 20.298 18.402C20.31 18.393 21.56 17.5 24 17.5C26.426 17.5 27.674 18.381 27.702 18.401C27.7903 18.4687 27.8988 18.5048 28.0101 18.5036C28.1213 18.5024 28.229 18.464 28.3159 18.3945C28.4028 18.325 28.4639 18.2284 28.4895 18.1201C28.5151 18.0118 28.5036 17.898 28.457 17.797ZM16.457 17.797C16.397 17.662 14.958 14.5 12 14.5C9.043 14.5 7.603 17.662 7.543 17.797C7.49731 17.8979 7.4865 18.0111 7.51226 18.1189C7.53802 18.2266 7.59889 18.3227 7.68529 18.392C7.77168 18.4613 7.87868 18.4999 7.98943 18.5018C8.10019 18.5036 8.20839 18.4685 8.297 18.402C8.31 18.393 9.559 17.5 12 17.5C14.426 17.5 15.674 18.381 15.702 18.401C15.7903 18.4687 15.8988 18.5048 16.0101 18.5036C16.1213 18.5024 16.229 18.464 16.3159 18.3945C16.4028 18.325 16.4639 18.2284 16.4895 18.1201C16.5151 18.0118 16.5036 17.898 16.457 17.797ZM18 22C14.377 22 11.973 21.578 9 21C8.321 20.869 7 21 7 23C7 27 11.595 32 18 32C24.404 32 29 27 29 23C29 21 27.679 20.868 27 21C24.027 21.578 21.623 22 18 22Z" fill="#664500"/>
<path d="M9 23C9 23 12 24 18 24C24 24 27 23 27 23C27 23 25 27 18 27C11 27 9 23 9 23Z" fill="white"/>
</g>
<defs>
<clipPath id="clip0_27_110">
<rect width="36" height="36" fill="white"/>
</clipPath>
</defs>
</svg>
