<svg width="36" height="36" viewBox="0 0 36 36" fill="none" xmlns="http://www.w3.org/2000/svg">
<g clip-path="url(#clip0_27_96)">
<path d="M35 19C35.0024 16.9979 34.6503 15.0113 33.96 13.132C33.5 18.521 30.627 21.289 27.625 20C24.813 18.792 26.708 14.083 26.848 11.836C27.084 8.027 26.836 3.667 19.917 0.0419998C22.792 5.542 20.25 8.959 17.584 9.167C14.626 9.398 11.917 6.625 12.917 2.125C9.67902 4.511 9.58502 8.527 10.584 11.125C11.626 13.833 10.542 16.083 8.00102 16.333C5.16102 16.613 3.58302 13.292 5.03802 8C2.42603 11.0694 0.994279 14.9697 1.00002 19C1.00002 28.389 8.61102 36 18 36C27.389 36 35 28.389 35 19Z" fill="#F4900C"/>
<path d="M28.394 23.999C28.542 27.083 25.833 28.292 24.375 27.708C22.269 26.865 22.834 25.417 22.292 22.417C21.75 19.417 19.667 17.334 16.584 16.417C18.834 22.75 15.337 25.084 13.504 25.501C11.632 25.927 9.75101 25.5 9.53601 21.494C8.41379 22.6078 7.52348 23.933 6.91655 25.393C6.30961 26.853 5.9981 28.4189 6.00001 30C6.00001 30.368 6.02301 30.73 6.05501 31.09C9.12501 34.124 13.342 36 18 36C22.658 36 26.875 34.124 29.945 31.09C29.977 30.73 30 30.368 30 30C30 27.813 29.416 25.764 28.394 23.999Z" fill="#FFCC4D"/>
</g>
<defs>
<clipPath id="clip0_27_96">
<rect width="36" height="36" fill="white"/>
</clipPath>
</defs>
</svg>
