<svg width="36" height="36" viewBox="0 0 36 36" fill="none" xmlns="http://www.w3.org/2000/svg">
<g clip-path="url(#clip0_27_100)">
<path d="M36 18C36 27.941 27.941 36 18 36C8.059 36 0 27.941 0 18C0 8.059 8.059 0 18 0C27.941 0 36 8.059 36 18Z" fill="#FFCC4D"/>
<path d="M23.485 28.879C23.474 28.835 22.34 24.5 18 24.5C13.66 24.5 12.526 28.835 12.515 28.879C12.4901 28.9826 12.4993 29.0914 12.5411 29.1894C12.5828 29.2873 12.655 29.3693 12.747 29.423C12.84 29.4771 12.9477 29.5005 13.0547 29.4897C13.1618 29.4789 13.2627 29.4346 13.343 29.363C13.352 29.355 14.356 28.5 18 28.5C21.59 28.5 22.617 29.33 22.656 29.363C22.7345 29.4374 22.8351 29.4843 22.9425 29.4967C23.05 29.5091 23.1586 29.4864 23.252 29.4318C23.3454 29.3773 23.4186 29.2939 23.4606 29.1942C23.5026 29.0946 23.5112 28.984 23.485 28.879ZM15.703 17.598C15.69 17.607 14.441 18.5 12 18.5C9.558 18.5 8.31 17.607 8.3 17.6C8.20583 17.5272 8.08875 17.4905 7.96988 17.4965C7.85102 17.5024 7.7382 17.5507 7.65179 17.6325C7.56537 17.7143 7.51104 17.8244 7.49862 17.9427C7.48619 18.0611 7.51647 18.18 7.584 18.278C7.645 18.368 9.099 20.5 12 20.5C14.9 20.5 16.355 18.368 16.416 18.277C16.4809 18.1791 16.5092 18.0615 16.496 17.9448C16.4829 17.8281 16.4291 17.7197 16.344 17.6387C16.259 17.5578 16.1481 17.5093 16.0309 17.5018C15.9137 17.4944 15.7976 17.5284 15.703 17.598ZM28.345 17.64C28.26 17.5583 28.1488 17.5093 28.0312 17.5016C27.9135 17.4939 27.7969 17.5281 27.702 17.598C27.69 17.607 26.44 18.5 24 18.5C21.559 18.5 20.31 17.607 20.3 17.6C20.2058 17.5272 20.0887 17.4905 19.9699 17.4965C19.851 17.5024 19.7382 17.5507 19.6518 17.6325C19.5654 17.7143 19.511 17.8244 19.4986 17.9427C19.4862 18.0611 19.5165 18.18 19.584 18.278C19.645 18.368 21.099 20.5 24 20.5C26.9 20.5 28.355 18.368 28.416 18.277C28.481 18.1795 28.5096 18.0621 28.4966 17.9456C28.4836 17.829 28.4299 17.7208 28.345 17.64ZM31.001 16C30.8456 16.0003 30.6922 15.9643 30.5531 15.8949C30.4141 15.8254 30.2931 15.7244 30.2 15.6C27.559 12.079 24.139 12.001 23.994 12C23.7296 11.9971 23.4771 11.8898 23.2915 11.7016C23.1059 11.5133 23.0022 11.2594 23.003 10.995C23.0035 10.7309 23.1088 10.4778 23.2957 10.2913C23.4826 10.1048 23.7359 10 24 10C24.184 10 28.537 10.05 31.8 14.4C31.9114 14.5485 31.9792 14.7251 31.9959 14.9099C32.0127 15.0948 31.9776 15.2807 31.8947 15.4468C31.8117 15.6128 31.6842 15.7525 31.5264 15.8503C31.3685 15.948 31.1866 15.9998 31.001 16ZM4.999 16C4.81337 15.9998 4.63146 15.948 4.47363 15.8503C4.3158 15.7525 4.18828 15.6128 4.10535 15.4468C4.02242 15.2807 3.98735 15.0948 4.00406 14.9099C4.02078 14.7251 4.08862 14.5485 4.2 14.4C7.462 10.05 11.816 10 12 10C12.2652 9.99947 12.5198 10.1043 12.7077 10.2915C12.8956 10.4786 13.0015 10.7328 13.002 10.998C13.0025 11.2632 12.8977 11.5178 12.7105 11.7057C12.5234 11.8936 12.2692 11.9995 12.004 12C11.848 12.002 8.435 12.086 5.799 15.6C5.70613 15.7245 5.5854 15.8255 5.44648 15.895C5.30756 15.9644 5.15431 16.0004 4.999 16Z" fill="#664500"/>
<path d="M23 23C29.211 23 36 27 36 32C36 36 33 36 33 36C25 36 32 27 23 23Z" fill="#5DADEC"/>
</g>
<defs>
<clipPath id="clip0_27_100">
<rect width="36" height="36" fill="white"/>
</clipPath>
</defs>
</svg>
