<svg width="36" height="36" viewBox="0 0 36 36" fill="none" xmlns="http://www.w3.org/2000/svg">
<g clip-path="url(#clip0_27_114)">
<path d="M18 36C27.9411 36 36 27.9411 36 18C36 8.05887 27.9411 0 18 0C8.05887 0 0 8.05887 0 18C0 27.9411 8.05887 36 18 36Z" fill="#FFCC4D"/>
<path d="M23.485 28.879C23.474 28.835 22.34 24.5 18 24.5C13.66 24.5 12.526 28.835 12.515 28.879C12.4902 28.9826 12.4993 29.0914 12.5411 29.1894C12.5829 29.2873 12.6551 29.3693 12.747 29.423C12.84 29.4771 12.9477 29.5005 13.0548 29.4897C13.1618 29.4789 13.2627 29.4346 13.343 29.363C13.352 29.355 14.356 28.5 18 28.5C21.59 28.5 22.617 29.33 22.656 29.363C22.7346 29.4374 22.8351 29.4843 22.9426 29.4967C23.05 29.5091 23.1586 29.4864 23.252 29.4318C23.3454 29.3773 23.4186 29.2939 23.4606 29.1942C23.5027 29.0946 23.5112 28.984 23.485 28.879ZM11.226 15.512C10.909 15.512 10.59 15.551 10.279 15.628C7.40905 16.335 6.76605 19.749 6.74005 19.895C6.72069 20.0037 6.73784 20.1157 6.78881 20.2136C6.83978 20.3115 6.92171 20.3898 7.02182 20.4362C7.12194 20.4827 7.23461 20.4947 7.34228 20.4704C7.44995 20.4461 7.54656 20.3869 7.61705 20.302C7.62705 20.29 8.62705 19.124 10.996 18.541C11.6739 18.3697 12.3699 18.2807 13.069 18.276C14.173 18.276 14.801 18.529 14.804 18.53C14.871 18.558 14.935 18.57 15.011 18.57C15.117 18.5719 15.2208 18.54 15.3075 18.479C15.3942 18.418 15.4593 18.3311 15.4933 18.2307C15.5274 18.1303 15.5287 18.0217 15.497 17.9206C15.4653 17.8195 15.4023 17.731 15.317 17.668C14.95 17.233 13.364 15.512 11.226 15.512ZM24.774 15.512C25.091 15.512 25.41 15.551 25.721 15.628C28.591 16.335 29.234 19.749 29.26 19.895C29.2794 20.0037 29.2623 20.1157 29.2113 20.2136C29.1603 20.3115 29.0784 20.3898 28.9783 20.4362C28.8782 20.4827 28.7655 20.4947 28.6578 20.4704C28.5501 20.4461 28.4535 20.3869 28.383 20.302C28.373 20.29 27.373 19.124 25.004 18.541C24.3262 18.3697 23.6302 18.2807 22.931 18.276C21.827 18.276 21.2 18.529 21.196 18.53C21.1309 18.5574 21.0607 18.5711 20.99 18.57C20.8841 18.5719 20.7803 18.54 20.6936 18.479C20.6069 18.418 20.5418 18.3311 20.5078 18.2307C20.4737 18.1303 20.4724 18.0217 20.5041 17.9206C20.5358 17.8195 20.5988 17.731 20.684 17.668C21.05 17.233 22.636 15.512 24.774 15.512Z" fill="#664500"/>
</g>
<defs>
<clipPath id="clip0_27_114">
<rect width="36" height="36" fill="white"/>
</clipPath>
</defs>
</svg>
